<svg id="visual" viewBox="0 0 900 600" width="900" height="600" xmlns="http://www.w3.org/2000/svg" xmlns:xlink="http://www.w3.org/1999/xlink" version="1.1"><rect x="0" y="0" width="900" height="600" fill="#283752"></rect><g fill="#2F4775"><circle r="18" cx="94" cy="585"></circle><circle r="2" cx="684" cy="345"></circle><circle r="10" cx="583" cy="424"></circle><circle r="2" cx="354" cy="215"></circle><circle r="9" cx="651" cy="251"></circle><circle r="3" cx="692" cy="149"></circle><circle r="13" cx="103" cy="238"></circle><circle r="12" cx="189" cy="355"></circle><circle r="5" cx="212" cy="72"></circle><circle r="10" cx="600" cy="186"></circle><circle r="1" cx="629" cy="388"></circle><circle r="14" cx="540" cy="448"></circle><circle r="5" cx="781" cy="318"></circle><circle r="13" cx="674" cy="115"></circle><circle r="1" cx="156" cy="108"></circle><circle r="13" cx="768" cy="372"></circle><circle r="12" cx="310" cy="290"></circle><circle r="11" cx="876" cy="107"></circle><circle r="9" cx="637" cy="544"></circle><circle r="12" cx="739" cy="339"></circle><circle r="15" cx="793" cy="268"></circle><circle r="8" cx="15" cy="464"></circle><circle r="2" cx="84" cy="153"></circle><circle r="5" cx="41" cy="241"></circle><circle r="11" cx="84" cy="345"></circle><circle r="8" cx="94" cy="11"></circle><circle r="3" cx="41" cy="188"></circle><circle r="12" cx="882" cy="35"></circle><circle r="14" cx="810" cy="439"></circle><circle r="1" cx="684" cy="199"></circle><circle r="2" cx="567" cy="533"></circle><circle r="11" cx="875" cy="390"></circle><circle r="1" cx="349" cy="428"></circle><circle r="7" cx="485" cy="116"></circle><circle r="7" cx="5" cy="148"></circle><circle r="11" cx="146" cy="218"></circle><circle r="13" cx="478" cy="30"></circle><circle r="13" cx="866" cy="207"></circle><circle r="2" cx="169" cy="165"></circle><circle r="16" cx="575" cy="222"></circle><circle r="5" cx="707" cy="65"></circle><circle r="14" cx="869" cy="309"></circle><circle r="14" cx="115" cy="182"></circle><circle r="4" cx="29" cy="356"></circle><circle r="7" cx="263" cy="272"></circle><circle r="14" cx="58" cy="575"></circle><circle r="2" cx="403" cy="116"></circle><circle r="16" cx="257" cy="116"></circle><circle r="7" cx="64" cy="307"></circle><circle r="8" cx="182" cy="299"></circle><circle r="9" cx="434" cy="78"></circle><circle r="6" cx="448" cy="326"></circle><circle r="15" cx="220" cy="110"></circle><circle r="12" cx="486" cy="512"></circle><circle r="1" cx="255" cy="398"></circle><circle r="9" cx="644" cy="476"></circle><circle r="12" cx="190" cy="573"></circle><circle r="6" cx="373" cy="370"></circle><circle r="15" cx="458" cy="547"></circle><circle r="14" cx="248" cy="527"></circle><circle r="4" cx="517" cy="269"></circle><circle r="2" cx="134" cy="135"></circle><circle r="5" cx="470" cy="377"></circle><circle r="1" cx="17" cy="589"></circle><circle r="2" cx="844" cy="584"></circle><circle r="16" cx="375" cy="4"></circle><circle r="16" cx="482" cy="343"></circle><circle r="8" cx="825" cy="78"></circle><circle r="1" cx="550" cy="501"></circle><circle r="2" cx="67" cy="404"></circle><circle r="3" cx="128" cy="74"></circle><circle r="5" cx="784" cy="125"></circle><circle r="5" cx="552" cy="165"></circle><circle r="6" cx="204" cy="170"></circle><circle r="14" cx="146" cy="442"></circle><circle r="4" cx="313" cy="474"></circle><circle r="1" cx="193" cy="531"></circle><circle r="11" cx="724" cy="218"></circle><circle r="13" cx="576" cy="122"></circle><circle r="2" cx="667" cy="415"></circle><circle r="13" cx="389" cy="335"></circle><circle r="7" cx="576" cy="470"></circle><circle r="16" cx="136" cy="512"></circle><circle r="11" cx="514" cy="192"></circle><circle r="5" cx="66" cy="481"></circle><circle r="11" cx="151" cy="325"></circle><circle r="2" cx="693" cy="387"></circle><circle r="16" cx="133" cy="356"></circle><circle r="6" cx="375" cy="498"></circle><circle r="6" cx="308" cy="134"></circle><circle r="15" cx="276" cy="307"></circle><circle r="14" cx="393" cy="565"></circle><circle r="11" cx="636" cy="10"></circle><circle r="1" cx="707" cy="591"></circle><circle r="2" cx="559" cy="317"></circle><circle r="2" cx="624" cy="443"></circle><circle r="4" cx="395" cy="458"></circle><circle r="6" cx="838" cy="35"></circle><circle r="4" cx="131" cy="567"></circle><circle r="14" cx="812" cy="355"></circle><circle r="15" cx="702" cy="461"></circle><circle r="4" cx="4" cy="22"></circle><circle r="13" cx="210" cy="238"></circle><circle r="9" cx="640" cy="346"></circle><circle r="14" cx="15" cy="522"></circle><circle r="14" cx="471" cy="285"></circle><circle r="16" cx="583" cy="26"></circle><circle r="15" cx="626" cy="74"></circle><circle r="10" cx="64" cy="89"></circle><circle r="16" cx="787" cy="503"></circle><circle r="5" cx="477" cy="583"></circle><circle r="15" cx="594" cy="264"></circle><circle r="10" cx="886" cy="444"></circle><circle r="2" cx="756" cy="529"></circle><circle r="15" cx="447" cy="8"></circle><circle r="14" cx="653" cy="289"></circle><circle r="1" cx="770" cy="438"></circle><circle r="15" cx="227" cy="293"></circle><circle r="14" cx="593" cy="90"></circle><circle r="16" cx="692" cy="498"></circle><circle r="15" cx="491" cy="439"></circle><circle r="14" cx="483" cy="80"></circle><circle r="7" cx="856" cy="245"></circle><circle r="12" cx="717" cy="539"></circle><circle r="6" cx="887" cy="270"></circle><circle r="15" cx="327" cy="75"></circle><circle r="9" cx="2" cy="62"></circle><circle r="5" cx="652" cy="148"></circle><circle r="10" cx="358" cy="130"></circle><circle r="7" cx="452" cy="251"></circle><circle r="3" cx="415" cy="189"></circle><circle r="16" cx="357" cy="289"></circle><circle r="1" cx="298" cy="391"></circle><circle r="1" cx="832" cy="539"></circle><circle r="10" cx="883" cy="561"></circle><circle r="14" cx="671" cy="3"></circle><circle r="3" cx="608" cy="144"></circle><circle r="1" cx="861" cy="477"></circle><circle r="5" cx="424" cy="285"></circle><circle r="7" cx="419" cy="365"></circle><circle r="13" cx="297" cy="194"></circle><circle r="4" cx="22" cy="397"></circle><circle r="1" cx="203" cy="461"></circle><circle r="16" cx="423" cy="418"></circle><circle r="11" cx="837" cy="138"></circle><circle r="9" cx="421" cy="530"></circle><circle r="13" cx="138" cy="283"></circle><circle r="14" cx="752" cy="6"></circle><circle r="12" cx="317" cy="511"></circle><circle r="13" cx="792" cy="163"></circle><circle r="2" cx="524" cy="121"></circle><circle r="1" cx="201" cy="14"></circle><circle r="5" cx="605" cy="490"></circle><circle r="9" cx="240" cy="40"></circle><circle r="1" cx="360" cy="534"></circle><circle r="8" cx="395" cy="230"></circle><circle r="5" cx="723" cy="296"></circle><circle r="1" cx="320" cy="345"></circle><circle r="3" cx="784" cy="201"></circle><circle r="14" cx="813" cy="476"></circle><circle r="3" cx="761" cy="93"></circle><circle r="9" cx="413" cy="492"></circle><circle r="4" cx="327" cy="583"></circle><circle r="13" cx="44" cy="122"></circle><circle r="11" cx="203" cy="397"></circle><circle r="3" cx="252" cy="187"></circle><circle r="1" cx="287" cy="546"></circle><circle r="11" cx="230" cy="331"></circle><circle r="4" cx="388" cy="65"></circle><circle r="13" cx="467" cy="182"></circle><circle r="6" cx="103" cy="459"></circle><circle r="1" cx="517" cy="325"></circle><circle r="12" cx="16" cy="214"></circle><circle r="2" cx="504" cy="472"></circle><circle r="13" cx="797" cy="53"></circle><circle r="9" cx="167" cy="254"></circle><circle r="13" cx="599" cy="361"></circle><circle r="6" cx="127" cy="403"></circle><circle r="14" cx="452" cy="445"></circle><circle r="1" cx="78" cy="274"></circle><circle r="16" cx="515" cy="556"></circle><circle r="5" cx="691" cy="253"></circle><circle r="4" cx="153" cy="34"></circle><circle r="13" cx="73" cy="532"></circle><circle r="5" cx="241" cy="572"></circle><circle r="1" cx="869" cy="523"></circle><circle r="4" cx="872" cy="142"></circle><circle r="14" cx="316" cy="241"></circle><circle r="9" cx="382" cy="163"></circle><circle r="4" cx="753" cy="406"></circle><circle r="8" cx="297" cy="32"></circle><circle r="3" cx="298" cy="98"></circle><circle r="11" cx="42" cy="441"></circle><circle r="7" cx="684" cy="559"></circle><circle r="12" cx="276" cy="63"></circle><circle r="12" cx="609" cy="326"></circle><circle r="6" cx="435" cy="572"></circle><circle r="7" cx="612" cy="231"></circle><circle r="16" cx="779" cy="568"></circle><circle r="12" cx="533" cy="11"></circle><circle r="6" cx="728" cy="431"></circle><circle r="15" cx="275" cy="358"></circle><circle r="5" cx="555" cy="260"></circle><circle r="14" cx="859" cy="72"></circle><circle r="14" cx="425" cy="45"></circle><circle r="1" cx="328" cy="168"></circle><circle r="8" cx="660" cy="593"></circle><circle r="11" cx="267" cy="430"></circle><circle r="9" cx="85" cy="55"></circle><circle r="12" cx="176" cy="420"></circle><circle r="10" cx="849" cy="412"></circle><circle r="15" cx="726" cy="95"></circle><circle r="12" cx="189" cy="206"></circle><circle r="9" cx="803" cy="6"></circle><circle r="6" cx="745" cy="167"></circle><circle r="2" cx="834" cy="299"></circle><circle r="5" cx="254" cy="233"></circle><circle r="7" cx="740" cy="571"></circle><circle r="2" cx="552" cy="587"></circle><circle r="15" cx="754" cy="58"></circle><circle r="8" cx="826" cy="194"></circle><circle r="9" cx="885" cy="345"></circle><circle r="15" cx="609" cy="568"></circle><circle r="13" cx="320" cy="3"></circle><circle r="10" cx="432" cy="155"></circle><circle r="8" cx="37" cy="38"></circle><circle r="7" cx="158" cy="591"></circle><circle r="14" cx="895" cy="181"></circle><circle r="6" cx="13" cy="271"></circle><circle r="10" cx="221" cy="493"></circle><circle r="8" cx="522" cy="394"></circle><circle r="6" cx="352" cy="46"></circle><circle r="3" cx="896" cy="481"></circle><circle r="5" cx="192" cy="134"></circle><circle r="14" cx="496" cy="230"></circle><circle r="1" cx="641" cy="199"></circle><circle r="10" cx="561" cy="396"></circle><circle r="6" cx="810" cy="593"></circle><circle r="15" cx="812" cy="234"></circle><circle r="12" cx="712" cy="23"></circle><circle r="6" cx="531" cy="51"></circle><circle r="7" cx="92" cy="119"></circle><circle r="13" cx="747" cy="252"></circle><circle r="13" cx="744" cy="126"></circle><circle r="8" cx="667" cy="51"></circle><circle r="12" cx="394" cy="265"></circle><circle r="9" cx="616" cy="40"></circle><circle r="8" cx="462" cy="484"></circle><circle r="2" cx="24" cy="320"></circle><circle r="7" cx="251" cy="2"></circle><circle r="1" cx="256" cy="490"></circle><circle r="2" cx="273" cy="590"></circle><circle r="3" cx="382" cy="407"></circle><circle r="16" cx="176" cy="78"></circle><circle r="2" cx="158" cy="381"></circle><circle r="3" cx="548" cy="352"></circle><circle r="14" cx="2" cy="105"></circle><circle r="8" cx="58" cy="6"></circle><circle r="5" cx="161" cy="545"></circle><circle r="11" cx="800" cy="393"></circle><circle r="1" cx="730" cy="491"></circle><circle r="11" cx="350" cy="252"></circle><circle r="13" cx="549" cy="84"></circle><circle r="5" cx="222" cy="430"></circle><circle r="6" cx="538" cy="221"></circle><circle r="3" cx="411" cy="1"></circle><circle r="11" cx="163" cy="479"></circle><circle r="2" cx="362" cy="595"></circle><circle r="14" cx="80" cy="189"></circle><circle r="3" cx="895" cy="234"></circle><circle r="5" cx="493" cy="149"></circle><circle r="16" cx="105" cy="305"></circle><circle r="1" cx="514" cy="594"></circle><circle r="15" cx="347" cy="393"></circle><circle r="6" cx="681" cy="310"></circle><circle r="7" cx="667" cy="524"></circle><circle r="12" cx="846" cy="368"></circle><circle r="16" cx="890" cy="595"></circle><circle r="7" cx="498" cy="1"></circle><circle r="6" cx="730" cy="379"></circle><circle r="2" cx="231" cy="145"></circle><circle r="9" cx="97" cy="506"></circle><circle r="8" cx="439" cy="120"></circle><circle r="8" cx="460" cy="411"></circle><circle r="1" cx="274" cy="160"></circle><circle r="15" cx="520" cy="520"></circle><circle r="10" cx="630" cy="110"></circle><circle r="15" cx="228" cy="370"></circle><circle r="6" cx="356" cy="95"></circle><circle r="4" cx="326" cy="547"></circle><circle r="15" cx="313" cy="437"></circle><circle r="1" cx="857" cy="5"></circle><circle r="9" cx="602" cy="529"></circle><circle r="6" cx="434" cy="219"></circle><circle r="14" cx="355" cy="466"></circle><circle r="12" cx="130" cy="3"></circle><circle r="7" cx="99" cy="383"></circle><circle r="4" cx="835" cy="505"></circle><circle r="3" cx="617" cy="291"></circle><circle r="1" cx="2" cy="556"></circle><circle r="11" cx="758" cy="286"></circle><circle r="5" cx="763" cy="476"></circle><circle r="13" cx="4" cy="431"></circle><circle r="10" cx="894" cy="76"></circle><circle r="1" cx="354" cy="332"></circle><circle r="16" cx="70" cy="222"></circle><circle r="10" cx="587" cy="597"></circle><circle r="12" cx="406" cy="598"></circle></g></svg>