<svg id="visual" viewBox="0 0 900 600" width="900" height="600" xmlns="http://www.w3.org/2000/svg" xmlns:xlink="http://www.w3.org/1999/xlink" version="1.1"><path d="M0 85L18.8 85C37.7 85 75.3 85 112.8 77C150.3 69 187.7 53 225.2 51C262.7 49 300.3 61 337.8 61C375.3 61 412.7 49 450.2 43C487.7 37 525.3 37 562.8 41C600.3 45 637.7 53 675.2 59C712.7 65 750.3 69 787.8 61C825.3 53 862.7 33 881.3 23L900 13L900 0L881.3 0C862.7 0 825.3 0 787.8 0C750.3 0 712.7 0 675.2 0C637.7 0 600.3 0 562.8 0C525.3 0 487.7 0 450.2 0C412.7 0 375.3 0 337.8 0C300.3 0 262.7 0 225.2 0C187.7 0 150.3 0 112.8 0C75.3 0 37.7 0 18.8 0L0 0Z" fill="#283752"></path><path d="M0 199L18.8 190C37.7 181 75.3 163 112.8 172C150.3 181 187.7 217 225.2 218C262.7 219 300.3 185 337.8 168C375.3 151 412.7 151 450.2 160C487.7 169 525.3 187 562.8 192C600.3 197 637.7 189 675.2 169C712.7 149 750.3 117 787.8 89C825.3 61 862.7 37 881.3 25L900 13L900 11L881.3 21C862.7 31 825.3 51 787.8 59C750.3 67 712.7 63 675.2 57C637.7 51 600.3 43 562.8 39C525.3 35 487.7 35 450.2 41C412.7 47 375.3 59 337.8 59C300.3 59 262.7 47 225.2 49C187.7 51 150.3 67 112.8 75C75.3 83 37.7 83 18.8 83L0 83Z" fill="#2a3c5d"></path><path d="M0 295L18.8 275C37.7 255 75.3 215 112.8 218C150.3 221 187.7 267 225.2 280C262.7 293 300.3 273 337.8 268C375.3 263 412.7 273 450.2 277C487.7 281 525.3 279 562.8 272C600.3 265 637.7 253 675.2 223C712.7 193 750.3 145 787.8 139C825.3 133 862.7 169 881.3 187L900 205L900 11L881.3 23C862.7 35 825.3 59 787.8 87C750.3 115 712.7 147 675.2 167C637.7 187 600.3 195 562.8 190C525.3 185 487.7 167 450.2 158C412.7 149 375.3 149 337.8 166C300.3 183 262.7 217 225.2 216C187.7 215 150.3 179 112.8 170C75.3 161 37.7 179 18.8 188L0 197Z" fill="#2c4167"></path><path d="M0 337L18.8 314C37.7 291 75.3 245 112.8 245C150.3 245 187.7 291 225.2 305C262.7 319 300.3 301 337.8 295C375.3 289 412.7 295 450.2 299C487.7 303 525.3 305 562.8 305C600.3 305 637.7 303 675.2 273C712.7 243 750.3 185 787.8 181C825.3 177 862.7 227 881.3 252L900 277L900 203L881.3 185C862.7 167 825.3 131 787.8 137C750.3 143 712.7 191 675.2 221C637.7 251 600.3 263 562.8 270C525.3 277 487.7 279 450.2 275C412.7 271 375.3 261 337.8 266C300.3 271 262.7 291 225.2 278C187.7 265 150.3 219 112.8 216C75.3 213 37.7 253 18.8 273L0 293Z" fill="#2e4673"></path><path d="M0 355L18.8 336C37.7 317 75.3 279 112.8 286C150.3 293 187.7 345 225.2 357C262.7 369 300.3 341 337.8 331C375.3 321 412.7 329 450.2 334C487.7 339 525.3 341 562.8 344C600.3 347 637.7 351 675.2 325C712.7 299 750.3 243 787.8 233C825.3 223 862.7 259 881.3 277L900 295L900 275L881.3 250C862.7 225 825.3 175 787.8 179C750.3 183 712.7 241 675.2 271C637.7 301 600.3 303 562.8 303C525.3 303 487.7 301 450.2 297C412.7 293 375.3 287 337.8 293C300.3 299 262.7 317 225.2 303C187.7 289 150.3 243 112.8 243C75.3 243 37.7 289 18.8 312L0 335Z" fill="#2f4775"></path><path d="M0 367L18.8 354C37.7 341 75.3 315 112.8 331C150.3 347 187.7 405 225.2 415C262.7 425 300.3 387 337.8 377C375.3 367 412.7 385 450.2 388C487.7 391 525.3 379 562.8 380C600.3 381 637.7 395 675.2 373C712.7 351 750.3 293 787.8 276C825.3 259 862.7 283 881.3 295L900 307L900 293L881.3 275C862.7 257 825.3 221 787.8 231C750.3 241 712.7 297 675.2 323C637.7 349 600.3 345 562.8 342C525.3 339 487.7 337 450.2 332C412.7 327 375.3 319 337.8 329C300.3 339 262.7 367 225.2 355C187.7 343 150.3 291 112.8 284C75.3 277 37.7 315 18.8 334L0 353Z" fill="#2e4673"></path><path d="M0 421L18.8 400C37.7 379 75.3 337 112.8 352C150.3 367 187.7 439 225.2 462C262.7 485 300.3 459 337.8 443C375.3 427 412.7 421 450.2 423C487.7 425 525.3 435 562.8 445C600.3 455 637.7 465 675.2 430C712.7 395 750.3 315 787.8 289C825.3 263 862.7 291 881.3 305L900 319L900 305L881.3 293C862.7 281 825.3 257 787.8 274C750.3 291 712.7 349 675.2 371C637.7 393 600.3 379 562.8 378C525.3 377 487.7 389 450.2 386C412.7 383 375.3 365 337.8 375C300.3 385 262.7 423 225.2 413C187.7 403 150.3 345 112.8 329C75.3 313 37.7 339 18.8 352L0 365Z" fill="#2c4167"></path><path d="M0 595L18.8 583C37.7 571 75.3 547 112.8 539C150.3 531 187.7 539 225.2 537C262.7 535 300.3 523 337.8 513C375.3 503 412.7 495 450.2 500C487.7 505 525.3 523 562.8 542C600.3 561 637.7 581 675.2 583C712.7 585 750.3 569 787.8 562C825.3 555 862.7 557 881.3 558L900 559L900 317L881.3 303C862.7 289 825.3 261 787.8 287C750.3 313 712.7 393 675.2 428C637.7 463 600.3 453 562.8 443C525.3 433 487.7 423 450.2 421C412.7 419 375.3 425 337.8 441C300.3 457 262.7 483 225.2 460C187.7 437 150.3 365 112.8 350C75.3 335 37.7 377 18.8 398L0 419Z" fill="#2a3c5d"></path><path d="M0 601L18.8 601C37.7 601 75.3 601 112.8 601C150.3 601 187.7 601 225.2 601C262.7 601 300.3 601 337.8 601C375.3 601 412.7 601 450.2 601C487.7 601 525.3 601 562.8 601C600.3 601 637.7 601 675.2 601C712.7 601 750.3 601 787.8 601C825.3 601 862.7 601 881.3 601L900 601L900 557L881.3 556C862.7 555 825.3 553 787.8 560C750.3 567 712.7 583 675.2 581C637.7 579 600.3 559 562.8 540C525.3 521 487.7 503 450.2 498C412.7 493 375.3 501 337.8 511C300.3 521 262.7 533 225.2 535C187.7 537 150.3 529 112.8 537C75.3 545 37.7 569 18.8 581L0 593Z" fill="#283752"></path></svg>