<svg id="visual" viewBox="0 0 900 600" width="900" height="600" xmlns="http://www.w3.org/2000/svg" xmlns:xlink="http://www.w3.org/1999/xlink" version="1.1"><path d="M0 49L7.5 52C15 55 30 61 45 55C60 49 75 31 90 29C105 27 120 41 135 41C150 41 165 27 180 20C195 13 210 13 225 13C240 13 255 13 270 20C285 27 300 41 315 50C330 59 345 63 360 60C375 57 390 47 405 38C420 29 435 21 450 19C465 17 480 21 495 22C510 23 525 21 540 22C555 23 570 27 585 36C600 45 615 59 630 56C645 53 660 33 675 30C690 27 705 41 720 47C735 53 750 51 765 48C780 45 795 41 810 38C825 35 840 33 855 32C870 31 885 31 892.5 31L900 31L900 0L892.5 0C885 0 870 0 855 0C840 0 825 0 810 0C795 0 780 0 765 0C750 0 735 0 720 0C705 0 690 0 675 0C660 0 645 0 630 0C615 0 600 0 585 0C570 0 555 0 540 0C525 0 510 0 495 0C480 0 465 0 450 0C435 0 420 0 405 0C390 0 375 0 360 0C345 0 330 0 315 0C300 0 285 0 270 0C255 0 240 0 225 0C210 0 195 0 180 0C165 0 150 0 135 0C120 0 105 0 90 0C75 0 60 0 45 0C30 0 15 0 7.5 0L0 0Z" fill="#395890"></path><path d="M0 79L7.5 80C15 81 30 83 45 73C60 63 75 41 90 39C105 37 120 55 135 55C150 55 165 37 180 29C195 21 210 23 225 26C240 29 255 33 270 39C285 45 300 53 315 63C330 73 345 85 360 82C375 79 390 61 405 51C420 41 435 39 450 42C465 45 480 53 495 54C510 55 525 49 540 47C555 45 570 47 585 54C600 61 615 73 630 69C645 65 660 45 675 41C690 37 705 49 720 59C735 69 750 77 765 79C780 81 795 77 810 75C825 73 840 73 855 67C870 61 885 49 892.5 43L900 37L900 29L892.5 29C885 29 870 29 855 30C840 31 825 33 810 36C795 39 780 43 765 46C750 49 735 51 720 45C705 39 690 25 675 28C660 31 645 51 630 54C615 57 600 43 585 34C570 25 555 21 540 20C525 19 510 21 495 20C480 19 465 15 450 17C435 19 420 27 405 36C390 45 375 55 360 58C345 61 330 57 315 48C300 39 285 25 270 18C255 11 240 11 225 11C210 11 195 11 180 18C165 25 150 39 135 39C120 39 105 25 90 27C75 29 60 47 45 53C30 59 15 53 7.5 50L0 47Z" fill="#38568d"></path><path d="M0 151L7.5 147C15 143 30 135 45 125C60 115 75 103 90 105C105 107 120 123 135 113C150 103 165 67 180 56C195 45 210 59 225 73C240 87 255 101 270 103C285 105 300 95 315 103C330 111 345 137 360 143C375 149 390 135 405 126C420 117 435 113 450 117C465 121 480 133 495 130C510 127 525 109 540 104C555 99 570 107 585 116C600 125 615 135 630 127C645 119 660 93 675 94C690 95 705 123 720 131C735 139 750 127 765 117C780 107 795 99 810 101C825 103 840 115 855 115C870 115 885 103 892.5 97L900 91L900 35L892.5 41C885 47 870 59 855 65C840 71 825 71 810 73C795 75 780 79 765 77C750 75 735 67 720 57C705 47 690 35 675 39C660 43 645 63 630 67C615 71 600 59 585 52C570 45 555 43 540 45C525 47 510 53 495 52C480 51 465 43 450 40C435 37 420 39 405 49C390 59 375 77 360 80C345 83 330 71 315 61C300 51 285 43 270 37C255 31 240 27 225 24C210 21 195 19 180 27C165 35 150 53 135 53C120 53 105 35 90 37C75 39 60 61 45 71C30 81 15 79 7.5 78L0 77Z" fill="#37548a"></path><path d="M0 193L7.5 184C15 175 30 157 45 143C60 129 75 119 90 128C105 137 120 165 135 161C150 157 165 121 180 110C195 99 210 113 225 119C240 125 255 123 270 122C285 121 300 121 315 137C330 153 345 185 360 190C375 195 390 173 405 160C420 147 435 143 450 143C465 143 480 147 495 142C510 137 525 123 540 126C555 129 570 149 585 156C600 163 615 157 630 145C645 133 660 115 675 118C690 121 705 145 720 156C735 167 750 165 765 160C780 155 795 147 810 148C825 149 840 159 855 155C870 151 885 133 892.5 124L900 115L900 89L892.5 95C885 101 870 113 855 113C840 113 825 101 810 99C795 97 780 105 765 115C750 125 735 137 720 129C705 121 690 93 675 92C660 91 645 117 630 125C615 133 600 123 585 114C570 105 555 97 540 102C525 107 510 125 495 128C480 131 465 119 450 115C435 111 420 115 405 124C390 133 375 147 360 141C345 135 330 109 315 101C300 93 285 103 270 101C255 99 240 85 225 71C210 57 195 43 180 54C165 65 150 101 135 111C120 121 105 105 90 103C75 101 60 113 45 123C30 133 15 141 7.5 145L0 149Z" fill="#365388"></path><path d="M0 241L7.5 228C15 215 30 189 45 178C60 167 75 171 90 181C105 191 120 207 135 193C150 179 165 135 180 129C195 123 210 155 225 167C240 179 255 171 270 165C285 159 300 155 315 172C330 189 345 227 360 234C375 241 390 217 405 199C420 181 435 169 450 168C465 167 480 177 495 178C510 179 525 171 540 173C555 175 570 187 585 189C600 191 615 183 630 176C645 169 660 163 675 166C690 169 705 181 720 186C735 191 750 189 765 190C780 191 795 195 810 193C825 191 840 183 855 175C870 167 885 159 892.5 155L900 151L900 113L892.5 122C885 131 870 149 855 153C840 157 825 147 810 146C795 145 780 153 765 158C750 163 735 165 720 154C705 143 690 119 675 116C660 113 645 131 630 143C615 155 600 161 585 154C570 147 555 127 540 124C525 121 510 135 495 140C480 145 465 141 450 141C435 141 420 145 405 158C390 171 375 193 360 188C345 183 330 151 315 135C300 119 285 119 270 120C255 121 240 123 225 117C210 111 195 97 180 108C165 119 150 155 135 159C120 163 105 135 90 126C75 117 60 127 45 141C30 155 15 173 7.5 182L0 191Z" fill="#355185"></path><path d="M0 409L7.5 387C15 365 30 321 45 307C60 293 75 309 90 314C105 319 120 313 135 283C150 253 165 199 180 193C195 187 210 229 225 248C240 267 255 263 270 269C285 275 300 291 315 319C330 347 345 387 360 381C375 375 390 323 405 306C420 289 435 307 450 328C465 349 480 373 495 361C510 349 525 301 540 275C555 249 570 245 585 238C600 231 615 221 630 224C645 227 660 243 675 250C690 257 705 255 720 254C735 253 750 253 765 268C780 283 795 313 810 327C825 341 840 339 855 331C870 323 885 309 892.5 302L900 295L900 149L892.5 153C885 157 870 165 855 173C840 181 825 189 810 191C795 193 780 189 765 188C750 187 735 189 720 184C705 179 690 167 675 164C660 161 645 167 630 174C615 181 600 189 585 187C570 185 555 173 540 171C525 169 510 177 495 176C480 175 465 165 450 166C435 167 420 179 405 197C390 215 375 239 360 232C345 225 330 187 315 170C300 153 285 157 270 163C255 169 240 177 225 165C210 153 195 121 180 127C165 133 150 177 135 191C120 205 105 189 90 179C75 169 60 165 45 176C30 187 15 213 7.5 226L0 239Z" fill="#344f82"></path><path d="M0 433L7.5 413C15 393 30 353 45 343C60 333 75 353 90 358C105 363 120 353 135 323C150 293 165 243 180 235C195 227 210 261 225 280C240 299 255 303 270 313C285 323 300 339 315 364C330 389 345 423 360 416C375 409 390 361 405 340C420 319 435 325 450 347C465 369 480 407 495 399C510 391 525 337 540 311C555 285 570 287 585 280C600 273 615 257 630 256C645 255 660 269 675 272C690 275 705 267 720 267C735 267 750 275 765 293C780 311 795 339 810 355C825 371 840 375 855 371C870 367 885 355 892.5 349L900 343L900 293L892.5 300C885 307 870 321 855 329C840 337 825 339 810 325C795 311 780 281 765 266C750 251 735 251 720 252C705 253 690 255 675 248C660 241 645 225 630 222C615 219 600 229 585 236C570 243 555 247 540 273C525 299 510 347 495 359C480 371 465 347 450 326C435 305 420 287 405 304C390 321 375 373 360 379C345 385 330 345 315 317C300 289 285 273 270 267C255 261 240 265 225 246C210 227 195 185 180 191C165 197 150 251 135 281C120 311 105 317 90 312C75 307 60 291 45 305C30 319 15 363 7.5 385L0 407Z" fill="#334d7f"></path><path d="M0 487L7.5 483C15 479 30 471 45 461C60 451 75 439 90 442C105 445 120 463 135 464C150 465 165 449 180 445C195 441 210 449 225 447C240 445 255 433 270 429C285 425 300 429 315 452C330 475 345 517 360 532C375 547 390 535 405 513C420 491 435 459 450 455C465 451 480 475 495 484C510 493 525 487 540 473C555 459 570 437 585 434C600 431 615 447 630 452C645 457 660 451 675 460C690 469 705 493 720 489C735 485 750 453 765 454C780 455 795 489 810 503C825 517 840 511 855 496C870 481 885 457 892.5 445L900 433L900 341L892.5 347C885 353 870 365 855 369C840 373 825 369 810 353C795 337 780 309 765 291C750 273 735 265 720 265C705 265 690 273 675 270C660 267 645 253 630 254C615 255 600 271 585 278C570 285 555 283 540 309C525 335 510 389 495 397C480 405 465 367 450 345C435 323 420 317 405 338C390 359 375 407 360 414C345 421 330 387 315 362C300 337 285 321 270 311C255 301 240 297 225 278C210 259 195 225 180 233C165 241 150 291 135 321C120 351 105 361 90 356C75 351 60 331 45 341C30 351 15 391 7.5 411L0 431Z" fill="#324c7d"></path><path d="M0 517L7.5 519C15 521 30 525 45 522C60 519 75 509 90 506C105 503 120 507 135 508C150 509 165 507 180 513C195 519 210 533 225 541C240 549 255 551 270 543C285 535 300 517 315 521C330 525 345 551 360 558C375 565 390 553 405 546C420 539 435 537 450 542C465 547 480 559 495 555C510 551 525 531 540 521C555 511 570 511 585 507C600 503 615 495 630 492C645 489 660 491 675 506C690 521 705 549 720 550C735 551 750 525 765 523C780 521 795 543 810 554C825 565 840 565 855 566C870 567 885 569 892.5 570L900 571L900 431L892.5 443C885 455 870 479 855 494C840 509 825 515 810 501C795 487 780 453 765 452C750 451 735 483 720 487C705 491 690 467 675 458C660 449 645 455 630 450C615 445 600 429 585 432C570 435 555 457 540 471C525 485 510 491 495 482C480 473 465 449 450 453C435 457 420 489 405 511C390 533 375 545 360 530C345 515 330 473 315 450C300 427 285 423 270 427C255 431 240 443 225 445C210 447 195 439 180 443C165 447 150 463 135 462C120 461 105 443 90 440C75 437 60 449 45 459C30 469 15 477 7.5 481L0 485Z" fill="#314a7a"></path><path d="M0 571L7.5 569C15 567 30 563 45 567C60 571 75 583 90 584C105 585 120 575 135 571C150 567 165 569 180 570C195 571 210 571 225 570C240 569 255 567 270 564C285 561 300 557 315 562C330 567 345 581 360 582C375 583 390 571 405 569C420 567 435 575 450 579C465 583 480 583 495 579C510 575 525 567 540 568C555 569 570 579 585 578C600 577 615 565 630 560C645 555 660 557 675 564C690 571 705 583 720 585C735 587 750 579 765 577C780 575 795 579 810 582C825 585 840 587 855 588C870 589 885 589 892.5 589L900 589L900 569L892.5 568C885 567 870 565 855 564C840 563 825 563 810 552C795 541 780 519 765 521C750 523 735 549 720 548C705 547 690 519 675 504C660 489 645 487 630 490C615 493 600 501 585 505C570 509 555 509 540 519C525 529 510 549 495 553C480 557 465 545 450 540C435 535 420 537 405 544C390 551 375 563 360 556C345 549 330 523 315 519C300 515 285 533 270 541C255 549 240 547 225 539C210 531 195 517 180 511C165 505 150 507 135 506C120 505 105 501 90 504C75 507 60 517 45 520C30 523 15 519 7.5 517L0 515Z" fill="#304978"></path><path d="M0 601L7.5 601C15 601 30 601 45 601C60 601 75 601 90 601C105 601 120 601 135 601C150 601 165 601 180 601C195 601 210 601 225 601C240 601 255 601 270 601C285 601 300 601 315 601C330 601 345 601 360 601C375 601 390 601 405 601C420 601 435 601 450 601C465 601 480 601 495 601C510 601 525 601 540 601C555 601 570 601 585 601C600 601 615 601 630 601C645 601 660 601 675 601C690 601 705 601 720 601C735 601 750 601 765 601C780 601 795 601 810 601C825 601 840 601 855 601C870 601 885 601 892.5 601L900 601L900 587L892.5 587C885 587 870 587 855 586C840 585 825 583 810 580C795 577 780 573 765 575C750 577 735 585 720 583C705 581 690 569 675 562C660 555 645 553 630 558C615 563 600 575 585 576C570 577 555 567 540 566C525 565 510 573 495 577C480 581 465 581 450 577C435 573 420 565 405 567C390 569 375 581 360 580C345 579 330 565 315 560C300 555 285 559 270 562C255 565 240 567 225 568C210 569 195 569 180 568C165 567 150 565 135 569C120 573 105 583 90 582C75 581 60 569 45 565C30 561 15 565 7.5 567L0 569Z" fill="#2f4775"></path></svg>