<svg id="visual" viewBox="0 0 960 540" width="960" height="540" xmlns="http://www.w3.org/2000/svg" xmlns:xlink="http://www.w3.org/1999/xlink" version="1.1"><rect width="960" height="540" fill="#FFFFFF"></rect><g><g transform="translate(378 139)"><path d="M0 -98.4L85.2 -49.2L85.2 49.2L0 98.4L-85.2 49.2L-85.2 -49.2Z" fill="#297EA6"></path></g><g transform="translate(929 8)"><path d="M0 -43L37.2 -21.5L37.2 21.5L0 43L-37.2 21.5L-37.2 -21.5Z" fill="#297EA6"></path></g><g transform="translate(819 224)"><path d="M0 -93L80.5 -46.5L80.5 46.5L0 93L-80.5 46.5L-80.5 -46.5Z" fill="#297EA6"></path></g><g transform="translate(173 369)"><path d="M0 -43L37.2 -21.5L37.2 21.5L0 43L-37.2 21.5L-37.2 -21.5Z" fill="#297EA6"></path></g><g transform="translate(606 389)"><path d="M0 -89L77.1 -44.5L77.1 44.5L0 89L-77.1 44.5L-77.1 -44.5Z" fill="#297EA6"></path></g><g transform="translate(177 4)"><path d="M0 -45L39 -22.5L39 22.5L0 45L-39 22.5L-39 -22.5Z" fill="#297EA6"></path></g><g transform="translate(605 169)"><path d="M0 -47L40.7 -23.5L40.7 23.5L0 47L-40.7 23.5L-40.7 -23.5Z" fill="#297EA6"></path></g><g transform="translate(862 460)"><path d="M0 -90L77.9 -45L77.9 45L0 90L-77.9 45L-77.9 -45Z" fill="#297EA6"></path></g></g></svg>