<svg id="visual" viewBox="0 0 900 600" width="900" height="600" xmlns="http://www.w3.org/2000/svg" xmlns:xlink="http://www.w3.org/1999/xlink" version="1.1"><g stroke-width="1" stroke-linejoin="bevel"><path d="M433 292L437 393L478 314Z" fill="#2c4169" stroke="#2c4169"></path><path d="M437 393L485 402L478 314Z" fill="#2f4775" stroke="#2f4775"></path><path d="M485 402L566 371L478 314Z" fill="#2b3f66" stroke="#2b3f66"></path><path d="M433 292L319 422L437 393Z" fill="#2e4571" stroke="#2e4571"></path><path d="M437 393L424 500L485 402Z" fill="#2c4169" stroke="#2c4169"></path><path d="M319 422L424 500L437 393Z" fill="#2b4067" stroke="#2b4067"></path><path d="M485 402L519 478L566 371Z" fill="#2d436d" stroke="#2d436d"></path><path d="M478 314L502 198L433 292Z" fill="#2e4673" stroke="#2e4673"></path><path d="M433 292L285 287L319 422Z" fill="#2d446f" stroke="#2d446f"></path><path d="M565 212L502 198L478 314Z" fill="#2b4067" stroke="#2b4067"></path><path d="M424 500L519 478L485 402Z" fill="#2b3f66" stroke="#2b3f66"></path><path d="M370 166L285 287L433 292Z" fill="#2a3e64" stroke="#2a3e64"></path><path d="M672 366L602 323L566 371Z" fill="#2d446f" stroke="#2d446f"></path><path d="M566 371L602 323L478 314Z" fill="#2e4673" stroke="#2e4673"></path><path d="M602 323L565 212L478 314Z" fill="#2a3d62" stroke="#2a3d62"></path><path d="M519 113L370 166L502 198Z" fill="#2a3e64" stroke="#2a3e64"></path><path d="M502 198L370 166L433 292Z" fill="#2a3d62" stroke="#2a3d62"></path><path d="M584 600L594 471L519 478Z" fill="#2a3d62" stroke="#2a3d62"></path><path d="M519 478L594 471L566 371Z" fill="#2f4775" stroke="#2f4775"></path><path d="M228 508L334 521L319 422Z" fill="#2b4067" stroke="#2b4067"></path><path d="M319 422L334 521L424 500Z" fill="#2a3d62" stroke="#2a3d62"></path><path d="M424 500L528 600L519 478Z" fill="#2b4067" stroke="#2b4067"></path><path d="M370 166L304 180L285 287Z" fill="#2d436d" stroke="#2d436d"></path><path d="M594 471L672 366L566 371Z" fill="#2c4169" stroke="#2c4169"></path><path d="M602 323L672 294L565 212Z" fill="#2a3d62" stroke="#2a3d62"></path><path d="M203 276L205 403L285 287Z" fill="#2c4169" stroke="#2c4169"></path><path d="M285 287L205 403L319 422Z" fill="#2c4169" stroke="#2c4169"></path><path d="M672 366L672 294L602 323Z" fill="#2e4673" stroke="#2e4673"></path><path d="M217 166L203 276L285 287Z" fill="#2f4775" stroke="#2f4775"></path><path d="M621 127L519 113L565 212Z" fill="#2f4775" stroke="#2f4775"></path><path d="M565 212L519 113L502 198Z" fill="#2d446f" stroke="#2d446f"></path><path d="M370 166L279 122L304 180Z" fill="#2e4571" stroke="#2e4571"></path><path d="M334 521L436 600L424 500Z" fill="#2b4067" stroke="#2b4067"></path><path d="M205 403L228 508L319 422Z" fill="#2a3e64" stroke="#2a3e64"></path><path d="M334 521L318 600L436 600Z" fill="#2e4673" stroke="#2e4673"></path><path d="M402 67L279 122L370 166Z" fill="#2c4169" stroke="#2c4169"></path><path d="M304 180L217 166L285 287Z" fill="#2b3f66" stroke="#2b3f66"></path><path d="M436 600L528 600L424 500Z" fill="#2d446f" stroke="#2d446f"></path><path d="M594 471L729 494L672 366Z" fill="#2f4775" stroke="#2f4775"></path><path d="M519 113L402 67L370 166Z" fill="#2d446f" stroke="#2d446f"></path><path d="M672 294L663 178L565 212Z" fill="#2e4571" stroke="#2e4571"></path><path d="M279 122L217 166L304 180Z" fill="#2d436d" stroke="#2d436d"></path><path d="M228 508L318 600L334 521Z" fill="#2c426b" stroke="#2c426b"></path><path d="M663 178L621 127L565 212Z" fill="#2d446f" stroke="#2d446f"></path><path d="M519 113L485 0L402 67Z" fill="#2b4067" stroke="#2b4067"></path><path d="M528 600L584 600L519 478Z" fill="#2a3e64" stroke="#2a3e64"></path><path d="M83 227L132 323L203 276Z" fill="#2e4673" stroke="#2e4673"></path><path d="M203 276L132 323L205 403Z" fill="#2e4571" stroke="#2e4571"></path><path d="M205 403L127 519L228 508Z" fill="#2b4067" stroke="#2b4067"></path><path d="M279 122L195 138L217 166Z" fill="#2b3f66" stroke="#2b3f66"></path><path d="M217 166L83 227L203 276Z" fill="#2f4775" stroke="#2f4775"></path><path d="M189 0L195 138L279 122Z" fill="#2e4571" stroke="#2e4571"></path><path d="M132 323L117 366L205 403Z" fill="#2d436d" stroke="#2d436d"></path><path d="M0 265L117 366L132 323Z" fill="#2d436d" stroke="#2d436d"></path><path d="M696 600L729 494L594 471Z" fill="#2d446f" stroke="#2d446f"></path><path d="M672 366L768 287L672 294Z" fill="#2c4169" stroke="#2c4169"></path><path d="M672 294L770 184L663 178Z" fill="#2e4673" stroke="#2e4673"></path><path d="M791 429L768 287L672 366Z" fill="#2e4673" stroke="#2e4673"></path><path d="M663 178L738 93L621 127Z" fill="#2e4673" stroke="#2e4673"></path><path d="M228 508L219 600L318 600Z" fill="#2a3d62" stroke="#2a3d62"></path><path d="M127 519L219 600L228 508Z" fill="#2c426b" stroke="#2c426b"></path><path d="M620 0L485 0L519 113Z" fill="#2f4775" stroke="#2f4775"></path><path d="M402 67L296 0L279 122Z" fill="#2b4067" stroke="#2b4067"></path><path d="M485 0L377 0L402 67Z" fill="#2c426b" stroke="#2c426b"></path><path d="M117 366L127 519L205 403Z" fill="#2f4775" stroke="#2f4775"></path><path d="M729 494L791 429L672 366Z" fill="#2e4673" stroke="#2e4673"></path><path d="M584 600L696 600L594 471Z" fill="#2d446f" stroke="#2d446f"></path><path d="M729 494L801 487L791 429Z" fill="#2c4169" stroke="#2c4169"></path><path d="M768 287L770 184L672 294Z" fill="#2c426b" stroke="#2c426b"></path><path d="M621 127L620 0L519 113Z" fill="#2b3f66" stroke="#2b3f66"></path><path d="M795 136L770 184L900 211Z" fill="#2a3d62" stroke="#2a3d62"></path><path d="M377 0L296 0L402 67Z" fill="#2f4775" stroke="#2f4775"></path><path d="M65 72L83 227L195 138Z" fill="#2d436d" stroke="#2d436d"></path><path d="M195 138L83 227L217 166Z" fill="#2b3f66" stroke="#2b3f66"></path><path d="M117 366L0 426L127 519Z" fill="#2b3f66" stroke="#2b3f66"></path><path d="M738 93L620 0L621 127Z" fill="#2b3f66" stroke="#2b3f66"></path><path d="M770 184L738 93L663 178Z" fill="#2f4775" stroke="#2f4775"></path><path d="M838 600L801 487L729 494Z" fill="#2d446f" stroke="#2d446f"></path><path d="M900 211L770 184L768 287Z" fill="#2d446f" stroke="#2d446f"></path><path d="M127 519L124 600L219 600Z" fill="#2e4571" stroke="#2e4571"></path><path d="M0 600L124 600L127 519Z" fill="#2a3e64" stroke="#2a3e64"></path><path d="M900 332L768 287L791 429Z" fill="#2f4775" stroke="#2f4775"></path><path d="M770 184L795 136L738 93Z" fill="#2b3f66" stroke="#2b3f66"></path><path d="M738 93L726 0L620 0Z" fill="#2c426b" stroke="#2c426b"></path><path d="M296 0L189 0L279 122Z" fill="#2e4673" stroke="#2e4673"></path><path d="M0 166L0 265L83 227Z" fill="#2d436d" stroke="#2d436d"></path><path d="M83 227L0 265L132 323Z" fill="#2d436d" stroke="#2d436d"></path><path d="M0 265L0 426L117 366Z" fill="#2f4775" stroke="#2f4775"></path><path d="M766 0L726 0L738 93Z" fill="#2b4067" stroke="#2b4067"></path><path d="M0 426L0 479L127 519Z" fill="#2b3f66" stroke="#2b3f66"></path><path d="M113 0L65 72L195 138Z" fill="#2d436d" stroke="#2d436d"></path><path d="M900 374L900 332L791 429Z" fill="#2e4571" stroke="#2e4571"></path><path d="M795 136L766 0L738 93Z" fill="#2a3d62" stroke="#2a3d62"></path><path d="M900 486L900 374L791 429Z" fill="#2c426b" stroke="#2c426b"></path><path d="M65 72L0 166L83 227Z" fill="#2e4673" stroke="#2e4673"></path><path d="M189 0L113 0L195 138Z" fill="#2d446f" stroke="#2d446f"></path><path d="M65 72L0 72L0 166Z" fill="#2e4673" stroke="#2e4673"></path><path d="M900 0L766 0L795 136Z" fill="#2d436d" stroke="#2d436d"></path><path d="M696 600L838 600L729 494Z" fill="#2f4775" stroke="#2f4775"></path><path d="M801 487L900 486L791 429Z" fill="#2f4775" stroke="#2f4775"></path><path d="M900 332L900 211L768 287Z" fill="#2c4169" stroke="#2c4169"></path><path d="M838 600L900 486L801 487Z" fill="#2e4673" stroke="#2e4673"></path><path d="M0 479L0 600L127 519Z" fill="#2d436d" stroke="#2d436d"></path><path d="M900 211L900 129L795 136Z" fill="#2a3e64" stroke="#2a3e64"></path><path d="M0 0L0 72L65 72Z" fill="#2d436d" stroke="#2d436d"></path><path d="M838 600L900 600L900 486Z" fill="#2a3e64" stroke="#2a3e64"></path><path d="M113 0L0 0L65 72Z" fill="#2b3f66" stroke="#2b3f66"></path><path d="M900 129L900 0L795 136Z" fill="#2e4673" stroke="#2e4673"></path></g></svg>