<?xml version="1.0" standalone="no"?>
<svg xmlns:xlink="http://www.w3.org/1999/xlink" id="wave" style="transform:rotate(180deg); transition: 0.3s" viewBox="0 0 1440 200" version="1.1" xmlns="http://www.w3.org/2000/svg"><defs><linearGradient id="sw-gradient-0" x1="0" x2="0" y1="1" y2="0"><stop stop-color="rgba(243, 106, 62, 1)" offset="0%"/><stop stop-color="rgba(255, 179, 11, 1)" offset="100%"/></linearGradient></defs><path style="transform:translate(0, 0px); opacity:1" fill="url(#sw-gradient-0)" d="M0,60L30,50C60,40,120,20,180,13.3C240,7,300,13,360,26.7C420,40,480,60,540,80C600,100,660,120,720,136.7C780,153,840,167,900,153.3C960,140,1020,100,1080,83.3C1140,67,1200,73,1260,66.7C1320,60,1380,40,1440,56.7C1500,73,1560,127,1620,150C1680,173,1740,167,1800,150C1860,133,1920,107,1980,90C2040,73,2100,67,2160,80C2220,93,2280,127,2340,126.7C2400,127,2460,93,2520,76.7C2580,60,2640,60,2700,60C2760,60,2820,60,2880,70C2940,80,3000,100,3060,116.7C3120,133,3180,147,3240,143.3C3300,140,3360,120,3420,106.7C3480,93,3540,87,3600,73.3C3660,60,3720,40,3780,30C3840,20,3900,20,3960,43.3C4020,67,4080,113,4140,126.7C4200,140,4260,120,4290,110L4320,100L4320,200L4290,200C4260,200,4200,200,4140,200C4080,200,4020,200,3960,200C3900,200,3840,200,3780,200C3720,200,3660,200,3600,200C3540,200,3480,200,3420,200C3360,200,3300,200,3240,200C3180,200,3120,200,3060,200C3000,200,2940,200,2880,200C2820,200,2760,200,2700,200C2640,200,2580,200,2520,200C2460,200,2400,200,2340,200C2280,200,2220,200,2160,200C2100,200,2040,200,1980,200C1920,200,1860,200,1800,200C1740,200,1680,200,1620,200C1560,200,1500,200,1440,200C1380,200,1320,200,1260,200C1200,200,1140,200,1080,200C1020,200,960,200,900,200C840,200,780,200,720,200C660,200,600,200,540,200C480,200,420,200,360,200C300,200,240,200,180,200C120,200,60,200,30,200L0,200Z"/></svg>