<svg id="visual" viewBox="0 0 960 540" width="960" height="540" xmlns="http://www.w3.org/2000/svg" xmlns:xlink="http://www.w3.org/1999/xlink" version="1.1"><rect x="0" y="0" width="960" height="540" fill="#e6f1f9"></rect><defs><linearGradient id="grad1_0" x1="43.8%" y1="0%" x2="100%" y2="100%"><stop offset="14.444444444444446%" stop-color="#533cfa" stop-opacity="1"></stop><stop offset="85.55555555555554%" stop-color="#533cfa" stop-opacity="1"></stop></linearGradient></defs><defs><linearGradient id="grad1_1" x1="43.8%" y1="0%" x2="100%" y2="100%"><stop offset="14.444444444444446%" stop-color="#533cfa" stop-opacity="1"></stop><stop offset="85.55555555555554%" stop-color="#52a8ff" stop-opacity="1"></stop></linearGradient></defs><defs><linearGradient id="grad1_2" x1="43.8%" y1="0%" x2="100%" y2="100%"><stop offset="14.444444444444446%" stop-color="#e6f1f9" stop-opacity="1"></stop><stop offset="85.55555555555554%" stop-color="#52a8ff" stop-opacity="1"></stop></linearGradient></defs><defs><linearGradient id="grad2_0" x1="0%" y1="0%" x2="56.3%" y2="100%"><stop offset="14.444444444444446%" stop-color="#533cfa" stop-opacity="1"></stop><stop offset="85.55555555555554%" stop-color="#533cfa" stop-opacity="1"></stop></linearGradient></defs><defs><linearGradient id="grad2_1" x1="0%" y1="0%" x2="56.3%" y2="100%"><stop offset="14.444444444444446%" stop-color="#52a8ff" stop-opacity="1"></stop><stop offset="85.55555555555554%" stop-color="#533cfa" stop-opacity="1"></stop></linearGradient></defs><defs><linearGradient id="grad2_2" x1="0%" y1="0%" x2="56.3%" y2="100%"><stop offset="14.444444444444446%" stop-color="#52a8ff" stop-opacity="1"></stop><stop offset="85.55555555555554%" stop-color="#e6f1f9" stop-opacity="1"></stop></linearGradient></defs><g transform="translate(960, 0)"><path d="M0 324C-20.2 305.1 -40.5 286.2 -64.8 283.7C-89 281.2 -117.4 295.2 -140.6 291.9C-163.8 288.7 -181.8 268.2 -198.9 249.4C-216 230.6 -232.1 213.4 -241.6 192.7C-251 171.9 -253.8 147.5 -263.1 126.7C-272.3 105.9 -288.1 88.8 -299.3 68.3C-310.5 47.8 -317.3 23.9 -324 0L0 0Z" fill="#98cfff"></path><path d="M0 216C-13.5 203.4 -27 190.8 -43.2 189.1C-59.4 187.5 -78.3 196.8 -93.7 194.6C-109.2 192.4 -121.2 178.8 -132.6 166.3C-144 153.7 -154.7 142.3 -161.1 128.4C-167.4 114.6 -169.2 98.3 -175.4 84.5C-181.6 70.6 -192 59.2 -199.5 45.5C-207 31.9 -211.5 15.9 -216 0L0 0Z" fill="#297aff"></path><path d="M0 108C-6.7 101.7 -13.5 95.4 -21.6 94.6C-29.7 93.7 -39.1 98.4 -46.9 97.3C-54.6 96.2 -60.6 89.4 -66.3 83.1C-72 76.9 -77.4 71.1 -80.5 64.2C-83.7 57.3 -84.6 49.2 -87.7 42.2C-90.8 35.3 -96 29.6 -99.8 22.8C-103.5 15.9 -105.8 8 -108 0L0 0Z" fill="#533cfa"></path></g><g transform="translate(0, 540)"><path d="M0 -324C22.5 -311.1 45 -298.1 65.9 -288.6C86.7 -279.1 105.9 -273 129.7 -269.4C153.5 -265.8 182 -264.8 199.5 -250.2C217.1 -235.6 223.8 -207.4 231.4 -184.6C239.1 -161.7 247.6 -144.3 264 -127.1C280.4 -110 304.6 -93.2 315.9 -72.1C327.2 -51 325.6 -25.5 324 0L0 0Z" fill="#98cfff"></path><path d="M0 -216C15 -207.4 30 -198.7 43.9 -192.4C57.8 -186 70.6 -182 86.5 -179.6C102.4 -177.2 121.3 -176.5 133 -166.8C144.7 -157.1 149.2 -138.3 154.3 -123C159.4 -107.8 165.1 -96.2 176 -84.8C186.9 -73.3 203 -62.2 210.6 -48.1C218.1 -34 217.1 -17 216 0L0 0Z" fill="#297aff"></path><path d="M0 -108C7.5 -103.7 15 -99.4 22 -96.2C28.9 -93 35.3 -91 43.2 -89.8C51.2 -88.6 60.7 -88.3 66.5 -83.4C72.4 -78.5 74.6 -69.1 77.1 -61.5C79.7 -53.9 82.5 -48.1 88 -42.4C93.5 -36.7 101.5 -31.1 105.3 -24C109.1 -17 108.5 -8.5 108 0L0 0Z" fill="#533cfa"></path></g></svg>