<?xml version="1.0" standalone="no"?>
<svg xmlns:xlink="http://www.w3.org/1999/xlink" id="wave" style="transform:rotate(0deg); transition: 0.3s" viewBox="0 0 1440 270" version="1.1" xmlns="http://www.w3.org/2000/svg"><defs><linearGradient id="sw-gradient-0" x1="0" x2="0" y1="1" y2="0"><stop stop-color="rgba(243, 106, 62, 1)" offset="0%"/><stop stop-color="rgba(255, 179, 11, 1)" offset="100%"/></linearGradient></defs><path style="transform:translate(0, 0px); opacity:1" fill="url(#sw-gradient-0)" d="M0,0L48,22.5C96,45,192,90,288,130.5C384,171,480,207,576,225C672,243,768,243,864,211.5C960,180,1056,117,1152,99C1248,81,1344,108,1440,126C1536,144,1632,153,1728,130.5C1824,108,1920,54,2016,67.5C2112,81,2208,162,2304,193.5C2400,225,2496,207,2592,166.5C2688,126,2784,63,2880,36C2976,9,3072,18,3168,40.5C3264,63,3360,99,3456,135C3552,171,3648,207,3744,189C3840,171,3936,99,4032,99C4128,99,4224,171,4320,171C4416,171,4512,99,4608,72C4704,45,4800,63,4896,81C4992,99,5088,117,5184,112.5C5280,108,5376,81,5472,81C5568,81,5664,108,5760,103.5C5856,99,5952,63,6048,40.5C6144,18,6240,9,6336,9C6432,9,6528,18,6624,40.5C6720,63,6816,99,6864,117L6912,135L6912,270L6864,270C6816,270,6720,270,6624,270C6528,270,6432,270,6336,270C6240,270,6144,270,6048,270C5952,270,5856,270,5760,270C5664,270,5568,270,5472,270C5376,270,5280,270,5184,270C5088,270,4992,270,4896,270C4800,270,4704,270,4608,270C4512,270,4416,270,4320,270C4224,270,4128,270,4032,270C3936,270,3840,270,3744,270C3648,270,3552,270,3456,270C3360,270,3264,270,3168,270C3072,270,2976,270,2880,270C2784,270,2688,270,2592,270C2496,270,2400,270,2304,270C2208,270,2112,270,2016,270C1920,270,1824,270,1728,270C1632,270,1536,270,1440,270C1344,270,1248,270,1152,270C1056,270,960,270,864,270C768,270,672,270,576,270C480,270,384,270,288,270C192,270,96,270,48,270L0,270Z"/><defs><linearGradient id="sw-gradient-1" x1="0" x2="0" y1="1" y2="0"><stop stop-color="rgba(243, 106, 62, 1)" offset="0%"/><stop stop-color="rgba(255, 179, 11, 1)" offset="100%"/></linearGradient></defs><path style="transform:translate(0, 50px); opacity:0.9" fill="url(#sw-gradient-1)" d="M0,243L48,202.5C96,162,192,81,288,40.5C384,0,480,0,576,22.5C672,45,768,90,864,103.5C960,117,1056,99,1152,108C1248,117,1344,153,1440,153C1536,153,1632,117,1728,126C1824,135,1920,189,2016,202.5C2112,216,2208,189,2304,189C2400,189,2496,216,2592,207C2688,198,2784,153,2880,112.5C2976,72,3072,36,3168,40.5C3264,45,3360,90,3456,99C3552,108,3648,81,3744,85.5C3840,90,3936,126,4032,153C4128,180,4224,198,4320,193.5C4416,189,4512,162,4608,135C4704,108,4800,81,4896,67.5C4992,54,5088,54,5184,54C5280,54,5376,54,5472,67.5C5568,81,5664,108,5760,126C5856,144,5952,153,6048,171C6144,189,6240,216,6336,189C6432,162,6528,81,6624,63C6720,45,6816,90,6864,112.5L6912,135L6912,270L6864,270C6816,270,6720,270,6624,270C6528,270,6432,270,6336,270C6240,270,6144,270,6048,270C5952,270,5856,270,5760,270C5664,270,5568,270,5472,270C5376,270,5280,270,5184,270C5088,270,4992,270,4896,270C4800,270,4704,270,4608,270C4512,270,4416,270,4320,270C4224,270,4128,270,4032,270C3936,270,3840,270,3744,270C3648,270,3552,270,3456,270C3360,270,3264,270,3168,270C3072,270,2976,270,2880,270C2784,270,2688,270,2592,270C2496,270,2400,270,2304,270C2208,270,2112,270,2016,270C1920,270,1824,270,1728,270C1632,270,1536,270,1440,270C1344,270,1248,270,1152,270C1056,270,960,270,864,270C768,270,672,270,576,270C480,270,384,270,288,270C192,270,96,270,48,270L0,270Z"/><defs><linearGradient id="sw-gradient-2" x1="0" x2="0" y1="1" y2="0"><stop stop-color="rgba(243, 106, 62, 1)" offset="0%"/><stop stop-color="rgba(255, 179, 11, 1)" offset="100%"/></linearGradient></defs><path style="transform:translate(0, 100px); opacity:0.8" fill="url(#sw-gradient-2)" d="M0,162L48,157.5C96,153,192,144,288,144C384,144,480,153,576,144C672,135,768,108,864,81C960,54,1056,27,1152,36C1248,45,1344,90,1440,94.5C1536,99,1632,63,1728,45C1824,27,1920,27,2016,49.5C2112,72,2208,117,2304,117C2400,117,2496,72,2592,76.5C2688,81,2784,135,2880,171C2976,207,3072,225,3168,234C3264,243,3360,243,3456,220.5C3552,198,3648,153,3744,139.5C3840,126,3936,144,4032,144C4128,144,4224,126,4320,103.5C4416,81,4512,54,4608,36C4704,18,4800,9,4896,27C4992,45,5088,90,5184,121.5C5280,153,5376,171,5472,189C5568,207,5664,225,5760,202.5C5856,180,5952,117,6048,90C6144,63,6240,72,6336,90C6432,108,6528,135,6624,126C6720,117,6816,72,6864,49.5L6912,27L6912,270L6864,270C6816,270,6720,270,6624,270C6528,270,6432,270,6336,270C6240,270,6144,270,6048,270C5952,270,5856,270,5760,270C5664,270,5568,270,5472,270C5376,270,5280,270,5184,270C5088,270,4992,270,4896,270C4800,270,4704,270,4608,270C4512,270,4416,270,4320,270C4224,270,4128,270,4032,270C3936,270,3840,270,3744,270C3648,270,3552,270,3456,270C3360,270,3264,270,3168,270C3072,270,2976,270,2880,270C2784,270,2688,270,2592,270C2496,270,2400,270,2304,270C2208,270,2112,270,2016,270C1920,270,1824,270,1728,270C1632,270,1536,270,1440,270C1344,270,1248,270,1152,270C1056,270,960,270,864,270C768,270,672,270,576,270C480,270,384,270,288,270C192,270,96,270,48,270L0,270Z"/></svg>