<svg id="visual" viewBox="0 0 960 540" width="960" height="540" xmlns="http://www.w3.org/2000/svg" xmlns:xlink="http://www.w3.org/1999/xlink" version="1.1"><rect x="0" y="0" width="960" height="540" fill="#FFFFFF"></rect><path d="M0 339L137 339L137 208L274 208L274 363L411 363L411 225L549 225L549 390L686 390L686 344L823 344L823 384L960 384L960 377L960 541L960 541L823 541L823 541L686 541L686 541L549 541L549 541L411 541L411 541L274 541L274 541L137 541L137 541L0 541Z" fill="#532783"></path><path d="M0 282L137 282L137 277L274 277L274 323L411 323L411 399L549 399L549 312L686 312L686 344L823 344L823 380L960 380L960 342L960 541L960 541L823 541L823 541L686 541L686 541L549 541L549 541L411 541L411 541L274 541L274 541L137 541L137 541L0 541Z" fill="#502583"></path><path d="M0 401L137 401L137 367L274 367L274 405L411 405L411 411L549 411L549 357L686 357L686 324L823 324L823 413L960 413L960 322L960 541L960 541L823 541L823 541L686 541L686 541L549 541L549 541L411 541L411 541L274 541L274 541L137 541L137 541L0 541Z" fill="#4d2383"></path><path d="M0 426L137 426L137 383L274 383L274 323L411 323L411 355L549 355L549 381L686 381L686 323L823 323L823 304L960 304L960 363L960 541L960 541L823 541L823 541L686 541L686 541L549 541L549 541L411 541L411 541L274 541L274 541L137 541L137 541L0 541Z" fill="#4a2183"></path><path d="M0 398L137 398L137 424L274 424L274 380L411 380L411 439L549 439L549 448L686 448L686 448L823 448L823 402L960 402L960 430L960 541L960 541L823 541L823 541L686 541L686 541L549 541L549 541L411 541L411 541L274 541L274 541L137 541L137 541L0 541Z" fill="#471f83"></path><path d="M0 368L137 368L137 438L274 438L274 462L411 462L411 447L549 447L549 408L686 408L686 438L823 438L823 386L960 386L960 426L960 541L960 541L823 541L823 541L686 541L686 541L549 541L549 541L411 541L411 541L274 541L274 541L137 541L137 541L0 541Z" fill="#431d83"></path><path d="M0 471L137 471L137 453L274 453L274 392L411 392L411 435L549 435L549 452L686 452L686 453L823 453L823 431L960 431L960 438L960 541L960 541L823 541L823 541L686 541L686 541L549 541L549 541L411 541L411 541L274 541L274 541L137 541L137 541L0 541Z" fill="#401b83"></path><path d="M0 439L137 439L137 455L274 455L274 473L411 473L411 490L549 490L549 441L686 441L686 464L823 464L823 457L960 457L960 424L960 541L960 541L823 541L823 541L686 541L686 541L549 541L549 541L411 541L411 541L274 541L274 541L137 541L137 541L0 541Z" fill="#3c1983"></path><path d="M0 493L137 493L137 495L274 495L274 488L411 488L411 452L549 452L549 486L686 486L686 506L823 506L823 470L960 470L960 506L960 541L960 541L823 541L823 541L686 541L686 541L549 541L549 541L411 541L411 541L274 541L274 541L137 541L137 541L0 541Z" fill="#371783"></path><path d="M0 481L137 481L137 518L274 518L274 496L411 496L411 500L549 500L549 483L686 483L686 499L823 499L823 513L960 513L960 487L960 541L960 541L823 541L823 541L686 541L686 541L549 541L549 541L411 541L411 541L274 541L274 541L137 541L137 541L0 541Z" fill="#331583"></path></svg>